<svg width="173" height="41" viewBox="0 0 173 41" fill="none" xmlns="http://www.w3.org/2000/svg">
<rect width="40.9425" height="40.9425" rx="9.27603" fill="#34E0A1"/>
<path d="M11.1953 26.7085V29.454C11.1953 31.4708 12.8303 33.1058 14.8471 33.1058H26.0956C28.1124 33.1058 29.7474 31.4708 29.7474 29.454V26.7085" stroke="#101010" stroke-width="3.67843" stroke-linecap="round"/>
<path d="M9.5957 12.6346L13.9548 9.81404C17.9201 7.24826 23.022 7.24826 26.9873 9.81404L31.3464 12.6346" stroke="#101010" stroke-width="3.51849" stroke-linecap="round"/>
<path d="M12.4746 17.4328L15.9882 15.1841C18.721 13.4351 22.2214 13.4351 24.9542 15.1841L28.4678 17.4328" stroke="#101010" stroke-width="3.51849" stroke-linecap="round"/>
<path d="M15.3535 22.3908L17.9266 20.7022C19.4716 19.6883 21.471 19.6883 23.016 20.7022L25.5891 22.3908" stroke="#101010" stroke-width="3.51849" stroke-linecap="round"/>
<path d="M59.6399 32.8124C57.5246 32.8124 55.7276 32.4484 54.2492 31.7206C52.7934 30.97 51.6789 29.9123 50.9055 28.5475C50.1322 27.16 49.7 25.4996 49.609 23.5662C49.5863 22.6336 49.5749 21.6328 49.5749 20.5638C49.5749 19.4947 49.5863 18.4711 49.609 17.4931C49.7 15.5824 50.1322 13.9333 50.9055 12.5458C51.7016 11.1584 52.8275 10.1007 54.2833 9.37281C55.7618 8.62219 57.5473 8.24689 59.6399 8.24689C61.1866 8.24689 62.5741 8.4516 63.8024 8.86102C65.0307 9.27045 66.077 9.8391 66.9413 10.567C67.8057 11.2721 68.4767 12.1023 68.9543 13.0576C69.432 14.013 69.6822 15.0479 69.7049 16.1624C69.7277 16.3671 69.6595 16.5377 69.5002 16.6742C69.3638 16.8107 69.1932 16.8789 68.9885 16.8789H65.7472C65.497 16.8789 65.2923 16.8221 65.133 16.7083C64.9738 16.5719 64.8601 16.3558 64.7919 16.0601C64.4279 14.5589 63.8024 13.5353 62.9153 12.9894C62.0282 12.4435 60.9251 12.1705 59.6058 12.1705C58.0818 12.1705 56.8649 12.6027 55.9551 13.4671C55.0453 14.3086 54.5562 15.7075 54.488 17.6637C54.4198 19.5288 54.4198 21.4395 54.488 23.3956C54.5562 25.3517 55.0453 26.762 55.9551 27.6263C56.8649 28.4679 58.0818 28.8887 59.6058 28.8887C60.9251 28.8887 62.0282 28.6158 62.9153 28.0699C63.8024 27.5012 64.4279 26.4777 64.7919 24.9992C64.8601 24.6807 64.9738 24.4647 65.133 24.3509C65.2923 24.2372 65.497 24.1803 65.7472 24.1803H68.9885C69.1932 24.1803 69.3638 24.2486 69.5002 24.3851C69.6595 24.5215 69.7277 24.6921 69.7049 24.8968C69.6822 26.0114 69.432 27.0463 68.9543 28.0016C68.4767 28.957 67.8057 29.7986 66.9413 30.5264C66.077 31.2315 65.0307 31.7888 63.8024 32.1982C62.5741 32.6077 61.1866 32.8124 59.6399 32.8124ZM81.1891 32.8124C79.3694 32.8124 77.8341 32.4939 76.5831 31.8571C75.3548 31.2202 74.4108 30.3217 73.7512 29.1617C73.1143 28.0016 72.7504 26.6483 72.6594 25.1015C72.6367 24.6921 72.6253 24.1917 72.6253 23.6003C72.6253 23.0089 72.6367 22.5085 72.6594 22.0991C72.7504 20.5296 73.1257 19.1763 73.7853 18.039C74.4677 16.8789 75.423 15.9805 76.6513 15.3436C77.9023 14.7067 79.4149 14.3883 81.1891 14.3883C82.9633 14.3883 84.4645 14.7067 85.6928 15.3436C86.9438 15.9805 87.8991 16.8789 88.5588 18.039C89.2411 19.1763 89.6278 20.5296 89.7188 22.0991C89.7415 22.5085 89.7529 23.0089 89.7529 23.6003C89.7529 24.1917 89.7415 24.6921 89.7188 25.1015C89.6278 26.6483 89.2525 28.0016 88.5929 29.1617C87.956 30.3217 87.012 31.2202 85.761 31.8571C84.5327 32.4939 83.0088 32.8124 81.1891 32.8124ZM81.1891 29.4346C82.3946 29.4346 83.3272 29.0593 83.9868 28.3087C84.6465 27.5353 85.0104 26.4094 85.0786 24.931C85.1014 24.5898 85.1128 24.1462 85.1128 23.6003C85.1128 23.0544 85.1014 22.6109 85.0786 22.2697C85.0104 20.814 84.6465 19.6994 83.9868 18.9261C83.3272 18.1527 82.3946 17.766 81.1891 17.766C79.9836 17.766 79.051 18.1527 78.3914 18.9261C77.7317 19.6994 77.3678 20.814 77.2996 22.2697C77.2768 22.6109 77.2654 23.0544 77.2654 23.6003C77.2654 24.1462 77.2768 24.5898 77.2996 24.931C77.3678 26.4094 77.7317 27.5353 78.3914 28.3087C79.051 29.0593 79.9836 29.4346 81.1891 29.4346ZM102.233 32.8124C100.118 32.8124 98.3439 32.5053 96.9109 31.8912C95.5007 31.2543 94.4202 30.4354 93.6696 29.4346C92.9418 28.4111 92.5551 27.342 92.5096 26.2275C92.5096 26.0228 92.5778 25.8522 92.7143 25.7157C92.8508 25.5792 93.0214 25.511 93.2261 25.511H96.2627C96.5584 25.511 96.7744 25.5792 96.9109 25.7157C97.0701 25.8294 97.2066 25.9773 97.3203 26.1592C97.4568 26.5914 97.7184 27.0236 98.1051 27.4557C98.4917 27.8652 99.0149 28.2063 99.6745 28.4793C100.357 28.7522 101.21 28.8887 102.233 28.8887C103.871 28.8887 105.088 28.6158 105.884 28.0699C106.703 27.524 107.112 26.7847 107.112 25.8522C107.112 25.1925 106.896 24.6694 106.464 24.2827C106.032 23.8733 105.361 23.5093 104.451 23.1909C103.564 22.8497 102.381 22.4971 100.903 22.1332C99.1969 21.7238 97.7639 21.2348 96.6038 20.6661C95.4666 20.0747 94.6022 19.3355 94.0108 18.4484C93.4422 17.5613 93.1578 16.4354 93.1578 15.0706C93.1578 13.7514 93.5104 12.58 94.2155 11.5564C94.9434 10.5328 95.967 9.72537 97.2862 9.13398C98.6282 8.54258 100.22 8.24689 102.063 8.24689C103.541 8.24689 104.849 8.4516 105.986 8.86102C107.124 9.2477 108.068 9.77086 108.818 10.4305C109.569 11.0674 110.138 11.7611 110.524 12.5117C110.934 13.2396 111.15 13.9561 111.173 14.6612C111.173 14.8432 111.104 15.0138 110.968 15.173C110.854 15.3095 110.684 15.3777 110.456 15.3777H107.283C107.101 15.3777 106.919 15.3322 106.737 15.2412C106.555 15.1502 106.407 14.9797 106.294 14.7294C106.157 14.0243 105.714 13.4216 104.963 12.9212C104.212 12.4207 103.246 12.1705 102.063 12.1705C100.835 12.1705 99.8451 12.398 99.0945 12.8529C98.3439 13.3078 97.9686 14.013 97.9686 14.9683C97.9686 15.6052 98.1506 16.1397 98.5145 16.5719C98.9012 16.9813 99.5039 17.3452 100.323 17.6637C101.164 17.9821 102.268 18.3233 103.632 18.6872C105.566 19.1194 107.147 19.6198 108.375 20.1884C109.603 20.7571 110.502 21.485 111.07 22.372C111.639 23.2364 111.923 24.3396 111.923 25.6816C111.923 27.1828 111.514 28.4679 110.695 29.537C109.899 30.5833 108.773 31.3908 107.317 31.9594C105.861 32.5281 104.167 32.8124 102.233 32.8124ZM116.277 32.4712C116.049 32.4712 115.856 32.3916 115.697 32.2324C115.538 32.0731 115.458 31.8798 115.458 31.6523V9.06574C115.458 8.83828 115.538 8.64494 115.697 8.48572C115.856 8.3265 116.049 8.24689 116.277 8.24689H119.313C119.564 8.24689 119.757 8.3265 119.893 8.48572C120.053 8.64494 120.132 8.83828 120.132 9.06574V16.8448C120.746 16.1169 121.497 15.5256 122.384 15.0706C123.271 14.6157 124.363 14.3883 125.659 14.3883C127.047 14.3883 128.252 14.7067 129.276 15.3436C130.322 15.9577 131.13 16.8334 131.698 17.9707C132.267 19.108 132.551 20.4728 132.551 22.065V31.6523C132.551 31.8798 132.472 32.0731 132.313 32.2324C132.153 32.3916 131.96 32.4712 131.733 32.4712H128.662C128.434 32.4712 128.241 32.3916 128.082 32.2324C127.923 32.0731 127.843 31.8798 127.843 31.6523V22.2697C127.843 20.9504 127.513 19.9155 126.854 19.1649C126.217 18.4143 125.284 18.039 124.056 18.039C122.873 18.039 121.918 18.4143 121.19 19.1649C120.485 19.9155 120.132 20.9504 120.132 22.2697V31.6523C120.132 31.8798 120.053 32.0731 119.893 32.2324C119.757 32.3916 119.564 32.4712 119.313 32.4712H116.277ZM144.524 32.8124C141.999 32.8124 139.997 32.0845 138.519 30.6288C137.04 29.173 136.244 27.1032 136.131 24.4192C136.108 24.1917 136.097 23.9074 136.097 23.5662C136.097 23.2023 136.108 22.9179 136.131 22.7132C136.222 21.0073 136.608 19.5288 137.291 18.2778C137.996 17.0268 138.963 16.0715 140.191 15.4118C141.419 14.7294 142.863 14.3883 144.524 14.3883C146.366 14.3883 147.913 14.7749 149.164 15.5483C150.415 16.2989 151.359 17.3566 151.996 18.7213C152.633 20.0633 152.951 21.6214 152.951 23.3956V24.1121C152.951 24.3396 152.872 24.5329 152.712 24.6921C152.553 24.8513 152.348 24.931 152.098 24.931H140.771C140.771 24.931 140.771 24.9651 140.771 25.0333C140.771 25.1015 140.771 25.1584 140.771 25.2039C140.794 26 140.941 26.7392 141.214 27.4216C141.51 28.0812 141.931 28.6158 142.477 29.0252C143.045 29.4346 143.716 29.6393 144.49 29.6393C145.127 29.6393 145.661 29.5484 146.093 29.3664C146.526 29.1617 146.878 28.9342 147.151 28.684C147.424 28.4338 147.617 28.2291 147.731 28.0699C147.936 27.7969 148.095 27.6377 148.209 27.5922C148.345 27.524 148.539 27.4899 148.789 27.4899H151.723C151.95 27.4899 152.132 27.5581 152.269 27.6946C152.428 27.831 152.496 28.0016 152.474 28.2063C152.451 28.5703 152.257 29.0138 151.894 29.537C151.552 30.0601 151.052 30.5719 150.392 31.0723C149.733 31.5727 148.902 31.9935 147.902 32.3347C146.924 32.6532 145.798 32.8124 144.524 32.8124ZM140.771 22.065H148.311V21.9626C148.311 21.0755 148.163 20.3022 147.868 19.6425C147.572 18.9829 147.14 18.4598 146.571 18.0731C146.002 17.6864 145.32 17.4931 144.524 17.4931C143.728 17.4931 143.045 17.6864 142.477 18.0731C141.908 18.4598 141.476 18.9829 141.18 19.6425C140.907 20.3022 140.771 21.0755 140.771 21.9626V22.065ZM157.426 32.4712C157.198 32.4712 157.005 32.3916 156.846 32.2324C156.687 32.0731 156.607 31.8798 156.607 31.6523V9.06574C156.607 8.83828 156.687 8.64494 156.846 8.48572C157.005 8.3265 157.198 8.24689 157.426 8.24689H160.258C160.485 8.24689 160.678 8.3265 160.838 8.48572C160.997 8.64494 161.077 8.83828 161.077 9.06574V31.6523C161.077 31.8798 160.997 32.0731 160.838 32.2324C160.678 32.3916 160.485 32.4712 160.258 32.4712H157.426ZM166.455 32.4712C166.228 32.4712 166.034 32.3916 165.875 32.2324C165.716 32.0731 165.636 31.8798 165.636 31.6523V9.06574C165.636 8.83828 165.716 8.64494 165.875 8.48572C166.034 8.3265 166.228 8.24689 166.455 8.24689H169.287C169.515 8.24689 169.708 8.3265 169.867 8.48572C170.026 8.64494 170.106 8.83828 170.106 9.06574V31.6523C170.106 31.8798 170.026 32.0731 169.867 32.2324C169.708 32.3916 169.515 32.4712 169.287 32.4712H166.455Z" fill="#101010"/>
</svg>
